<svg width="259" height="93" viewBox="0 0 259 93" fill="none" xmlns="http://www.w3.org/2000/svg">
<path d="M250.368 92.8974C251.415 93.2467 252.548 92.6804 252.897 91.6325L258.589 74.5562C258.939 73.5083 258.372 72.3757 257.325 72.0264C256.277 71.6771 255.144 72.2434 254.795 73.2913L249.735 88.4702L234.556 83.4106C233.508 83.0613 232.376 83.6276 232.026 84.6755C231.677 85.7234 232.243 86.856 233.291 87.2053L250.368 92.8974ZM2.0632 15.9191C3.26955 15.565 4.50544 15.2141 5.76964 14.867L4.71069 11.0097C3.42441 11.3629 2.16603 11.7202 0.936797 12.081L2.0632 15.9191ZM13.3479 12.919C15.813 12.3263 18.3619 11.7517 20.9873 11.2L20.1647 7.28553C17.5022 7.845 14.9158 8.42806 12.4128 9.02984L13.3479 12.919ZM28.6432 9.69909C31.1551 9.24118 33.7244 8.80608 36.3455 8.39746L35.7294 4.4452C33.0744 4.8591 30.4714 5.2999 27.9259 5.76394L28.6432 9.69909ZM44.0836 7.29051C46.6328 6.95827 49.2229 6.65247 51.8495 6.37612L51.431 2.39808C48.7712 2.67792 46.1482 2.98759 43.5666 3.32406L44.0836 7.29051ZM59.6372 5.65421C62.21 5.44789 64.8121 5.27112 67.4394 5.12653L67.2196 1.13258C64.5584 1.27903 61.923 1.45806 59.3174 1.66701L59.6372 5.65421ZM75.2419 4.79635C77.8262 4.72005 80.4304 4.67621 83.0511 4.66721L83.0374 0.667232C80.3812 0.67636 77.7422 0.720784 75.1239 0.798095L75.2419 4.79635ZM90.8616 4.74473C93.4522 4.80544 96.0551 4.90165 98.6671 5.03558L98.8719 1.04082C96.2221 0.904961 93.5821 0.807381 90.9553 0.745826L90.8616 4.74473ZM106.46 5.54733C109.047 5.75498 111.639 6.00129 114.234 6.28836L114.674 2.31262C112.038 2.02104 109.406 1.77094 106.781 1.56016L106.46 5.54733ZM121.978 7.26776C124.548 7.63428 127.118 8.04276 129.684 8.49523L130.378 4.55602C127.768 4.09574 125.156 3.68037 122.543 3.30781L121.978 7.26776ZM137.337 9.98051C139.876 10.5192 142.408 11.1033 144.93 11.7347L145.902 7.85444C143.332 7.21098 140.753 6.61607 138.168 6.06762L137.337 9.98051ZM152.45 13.7689C154.941 14.4943 157.419 15.2686 159.881 16.0938L161.152 12.3012C158.638 11.4586 156.109 10.6684 153.568 9.92843L152.45 13.7689ZM167.207 18.72C169.627 19.6459 172.029 20.6242 174.409 21.657L176.001 17.9875C173.566 16.9308 171.11 15.9303 168.636 14.984L167.207 18.72ZM181.47 24.9139C183.793 26.0513 186.092 27.2444 188.364 28.4952L190.293 24.9911C187.964 23.7089 185.608 22.4864 183.229 21.3215L181.47 24.9139ZM195.07 32.4062C197.266 33.7615 199.433 35.1752 201.567 36.6492L203.84 33.3576C201.648 31.844 199.424 30.3929 197.171 29.0023L195.07 32.4062ZM207.834 41.2235C209.874 42.7966 211.88 44.4302 213.85 46.1261L216.46 43.0946C214.435 41.3513 212.373 39.6725 210.277 38.0561L207.834 41.2235ZM219.596 51.3513C221.446 53.1281 223.259 54.9659 225.033 56.8666L227.957 54.1373C226.133 52.183 224.269 50.2933 222.367 48.4665L219.596 51.3513ZM230.162 62.6709C231.806 64.6363 233.41 66.6625 234.974 68.7511L238.176 66.354C236.569 64.2077 234.92 62.1251 233.23 60.1047L230.162 62.6709ZM239.464 75.0939C240.888 77.2232 242.273 79.4119 243.615 81.6614L247.05 79.6119C245.673 77.3035 244.251 75.0566 242.789 72.8699L239.464 75.0939ZM247.413 88.4046C248.023 89.5532 248.622 90.7164 249.211 91.8945L252.789 90.1056C252.185 88.8984 251.571 87.7061 250.945 86.5285L247.413 88.4046Z" fill="orange"/>
</svg>
